<svg viewBox="0 0 24 24" xmlns="http://www.w3.org/2000/svg">
    <path fill="rgba(50,153,255,1)" d="m21.47658,11.99677l2.15101,2.10409c0.29595,0.2804 0.40505,0.70127 0.31177,1.09105c-0.10911,0.3895 -0.42087,0.70127 -0.81065,0.79483l-2.93029,0.74819l0.8262,2.89919c0.10911,0.3895 0,0.81038 -0.29622,1.09105c-0.2804,0.29595 -0.70127,0.40505 -1.09105,0.29595l-2.89892,-0.82593l-0.74819,2.93029c-0.09356,0.3895 -0.40533,0.70127 -0.7951,0.81038c-0.09356,0.01555 -0.20266,0.03109 -0.29595,0.03109c-0.29622,0 -0.59244,-0.12465 -0.7951,-0.34286l-2.10409,-2.15073l-2.10409,2.15073c-0.28067,0.29622 -0.70155,0.40533 -1.09105,0.31177c-0.40533,-0.10911 -0.70155,-0.42087 -0.7951,-0.81038l-0.74791,-2.93029l-2.89919,0.8262c-0.38978,0.10911 -0.81065,0 -1.09105,-0.29622c-0.29622,-0.28067 -0.40533,-0.70155 -0.29622,-1.09105l0.8262,-2.89919l-2.93029,-0.74819c-0.38978,-0.09356 -0.70127,-0.40505 -0.81065,-0.79483c-0.09328,-0.38978 0.01582,-0.81038 0.31177,-1.09105l2.15101,-2.10409l-2.15101,-2.10436c-0.29595,-0.2804 -0.40505,-0.70127 -0.31177,-1.09105c0.10938,-0.3895 0.42087,-0.70127 0.81065,-0.79483l2.93029,-0.74819l-0.8262,-2.89892c-0.10911,-0.38978 0,-0.81065 0.29622,-1.09105c0.2804,-0.29622 0.70127,-0.40533 1.09105,-0.29622l2.89919,0.8262l0.74791,-2.93029c0.09356,-0.38978 0.40533,-0.70155 0.7951,-0.7951c0.3895,-0.10911 0.81038,0 1.09105,0.29622l2.10409,2.16655l2.10409,-2.16655c0.28067,-0.29622 0.686,-0.40533 1.09105,-0.29622c0.38978,0.09356 0.70155,0.40533 0.7951,0.7951l0.74819,2.93029l2.89892,-0.8262c0.38978,-0.10911 0.81065,0 1.09105,0.29622c0.29622,0.2804 0.40533,0.70127 0.29622,1.09105l-0.8262,2.89892l2.93029,0.74819c0.38978,0.09356 0.70155,0.40533 0.81065,0.79483c0.09328,0.38978 -0.01582,0.81065 -0.31177,1.09105l-2.15101,2.10436zm-6.92926,3.54591c0.06546,0.15902 0.14402,0.34259 0.23512,0.55071c0.09138,0.20839 0.17675,0.36277 0.25612,0.46315c0.07965,0.10065 0.17784,0.1803 0.29486,0.23867c0.11702,0.05864 0.25722,0.08783 0.42087,0.08783c0.28067,0 0.5207,-0.09956 0.71927,-0.2984c0.19884,-0.19884 0.2984,-0.4176 0.2984,-0.65599c0,-0.22939 -0.10529,-0.59653 -0.31586,-1.10196l-2.6878,-6.6385c-0.12629,-0.33222 -0.23021,-0.59762 -0.31231,-0.79647c-0.08183,-0.19884 -0.18221,-0.38487 -0.30168,-0.55807c-0.1192,-0.17293 -0.27604,-0.3145 -0.47024,-0.42442c-0.19393,-0.10992 -0.43615,-0.16502 -0.72609,-0.16502c-0.28558,0 -0.52534,0.0551 -0.71955,0.16502c-0.19393,0.10992 -0.35077,0.25367 -0.46997,0.43151c-0.11947,0.17784 -0.23158,0.40123 -0.33686,0.67018c-0.10529,0.26894 -0.1953,0.49943 -0.27031,0.69118l-2.63161,6.68077c-0.10747,0.26676 -0.18466,0.47488 -0.23158,0.62463c-0.04664,0.14975 -0.0701,0.29486 -0.0701,0.43506c0,0.2433 0.10065,0.46097 0.30168,0.65272c0.2013,0.19175 0.43287,0.28776 0.69473,0.28776c0.30877,0 0.53107,-0.09001 0.66663,-0.27031c0.13584,-0.18002 0.29949,-0.52752 0.49152,-1.04195l0.49097,-1.31935l4.18254,0l0.49125,1.29126l0,-0.00001zm-4.12635,-2.8561l1.52283,-4.24582l1.55093,4.24582l-3.07376,0z" />
</svg>